<svg width="550" height="414" viewBox="0 0 550 414" fill="none" xmlns="http://www.w3.org/2000/svg">
<path fill-rule="evenodd" clip-rule="evenodd" d="M4.8192 62.0888C-2.01372e-07 85.4107 0 117.108 0 162V228C0 304.368 0 342.551 23.7243 366.276C47.4487 390 85.6325 390 162 390H388C464.368 390 502.551 390 526.276 366.276C550 342.551 550 304.368 550 228V162C550 117.582 550 86.0813 545.332 62.8302L291.675 212.719L281.722 218.599L271.659 212.911L4.8192 62.0888ZM21.7987 25.7387L281.278 172.401L528.645 26.2293C527.882 25.3765 527.093 24.5418 526.276 23.7243C502.551 0 464.368 0 388 0H162C85.6325 0 47.4487 0 23.7243 23.7243C23.0643 24.3844 22.4226 25.0557 21.7987 25.7387Z" fill="#F67578"/>
<path d="M358.202 218.98L376.571 270.867L457.942 285.443L376.227 298.756L356.456 353.675C354.962 357.825 359.183 361.736 363.207 359.93L518.009 290.467C521.947 288.699 521.946 283.107 518.007 281.342L364.96 212.749C360.948 210.95 356.735 214.835 358.202 218.98Z" fill="white"/>
</svg>
