<svg width="516" height="511" viewBox="0 0 516 511" fill="none" xmlns="http://www.w3.org/2000/svg">
<path d="M188.014 382.513C196.851 382.513 204.014 375.349 204.014 366.513C204.014 357.676 196.851 350.513 188.014 350.513V382.513ZM103.514 366.513L100.072 382.138C101.203 382.387 102.357 382.513 103.514 382.513V366.513ZM63.0142 177.513L69.4206 192.174C76.309 189.164 80.1732 181.765 78.7069 174.392L63.0142 177.513ZM150.514 92.5127L146.833 108.084C154.216 109.829 161.81 106.15 165.015 99.2741L150.514 92.5127ZM404.014 136.513L388.078 137.947C388.706 144.915 393.788 150.668 400.625 152.15L404.014 136.513ZM404.014 366.513V382.513C404.324 382.513 404.634 382.504 404.943 382.486L404.014 366.513ZM325.514 350.513C316.677 350.513 309.514 357.676 309.514 366.513C309.514 375.349 316.677 382.513 325.514 382.513V350.513ZM241 494.5C241 503.337 248.163 510.5 257 510.5C265.837 510.5 273 503.337 273 494.5H241ZM268.314 150.686C262.065 144.438 251.935 144.438 245.686 150.686L143.863 252.51C137.615 258.758 137.615 268.889 143.863 275.137C150.111 281.385 160.242 281.385 166.49 275.137L257 184.627L347.51 275.137C353.758 281.385 363.889 281.385 370.137 275.137C376.385 268.889 376.385 258.758 370.137 252.51L268.314 150.686ZM188.014 350.513H103.514V382.513H188.014V350.513ZM106.956 350.887C80.5612 345.073 62.8303 333.347 51.361 319.475C39.801 305.494 33.8632 288.432 32.6543 270.914C31.4397 253.314 35.0469 235.73 42.0323 221.35C49.0765 206.848 58.948 196.75 69.4206 192.174L56.6078 162.851C37.3249 171.277 22.6294 188.056 13.2485 207.368C3.8087 226.801 -0.867316 249.967 0.730188 273.117C2.33336 296.349 10.3029 320.036 26.6991 339.866C43.186 359.807 67.46 374.954 100.072 382.138L106.956 350.887ZM78.7069 174.392C72.0618 140.978 81.5324 124.024 93.1683 115.469C106.147 105.927 126.497 103.276 146.833 108.084L154.195 76.9419C128.017 70.7532 97.1101 72.8536 74.2136 89.6869C49.9745 107.507 38.9523 138.551 47.3215 180.634L78.7069 174.392ZM165.015 99.2741C189.324 47.14 242.038 25.9974 290.93 33.569C339.467 41.0858 382.561 76.6566 388.078 137.947L419.95 135.078C412.953 57.3548 357.04 11.4257 295.827 1.94596C234.969 -7.47894 167.19 18.8854 136.013 85.7513L165.015 99.2741ZM400.625 152.15C432.674 159.095 453.913 174.756 466.894 193.663C480.023 212.787 485.379 236.241 483.671 259.52C480.184 307.056 448.606 347.892 403.085 350.54L404.943 382.486C471.408 378.62 511.323 319.951 515.586 261.861C517.753 232.328 511.048 201.44 493.275 175.551C475.353 149.446 446.847 129.424 407.403 120.876L400.625 152.15ZM404.014 350.513H325.514V382.513H404.014V350.513ZM273 494.5V162H241V494.5H273Z" fill="#FFEBEB"/>
</svg>
